<?xml version="1.0" encoding="iso-8859-1"?>
<!-- Generator: Adobe Illustrator 19.0.0, SVG Export Plug-In . SVG Version: 6.00 Build 0)  -->
<svg version="1.1" id="Layer_1" xmlns="http://www.w3.org/2000/svg" xmlns:xlink="http://www.w3.org/1999/xlink" x="0px" y="0px"
	 viewBox="0 0 512 512" style="enable-background:new 0 0 512 512;" xml:space="preserve">
<circle style="fill:#BEEBFF;" cx="256" cy="256" r="256"/>
<g>
	<path style="fill:#D9F3FF;" d="M105.931,194.207h-35.31c-4.875,0-8.828-3.953-8.828-8.828l0,0c0-4.875,3.953-8.828,8.828-8.828
		h35.31c4.875,0,8.828,3.953,8.828,8.828l0,0C114.759,190.254,110.806,194.207,105.931,194.207z"/>
	<path style="fill:#D9F3FF;" d="M141.241,176.552H97.103c-4.875,0-8.828-3.953-8.828-8.828l0,0c0-4.875,3.953-8.828,8.828-8.828
		h44.138c4.875,0,8.828,3.953,8.828,8.828l0,0C150.069,172.599,146.116,176.552,141.241,176.552z"/>
	<path style="fill:#D9F3FF;" d="M406.069,273.655h-61.793c-4.875,0-8.828-3.953-8.828-8.828l0,0c0-4.875,3.953-8.828,8.828-8.828
		h61.793c4.875,0,8.828,3.953,8.828,8.828l0,0C414.897,269.703,410.944,273.655,406.069,273.655z"/>
	<path style="fill:#D9F3FF;" d="M432.552,256h-44.138c-4.875,0-8.828-3.953-8.828-8.828l0,0c0-4.875,3.953-8.828,8.828-8.828h44.138
		c4.875,0,8.828,3.953,8.828,8.828l0,0C441.379,252.047,437.427,256,432.552,256z"/>
	<path style="fill:#D9F3FF;" d="M150.069,273.655h-44.138c-4.875,0-8.828-3.953-8.828-8.828l0,0c0-4.875,3.953-8.828,8.828-8.828
		h44.138c4.875,0,8.828,3.953,8.828,8.828l0,0C158.897,269.703,154.944,273.655,150.069,273.655z"/>
	<path style="fill:#D9F3FF;" d="M361.931,211.862h-35.31c-4.875,0-8.828-3.953-8.828-8.828l0,0c0-4.875,3.953-8.828,8.828-8.828
		h35.31c4.875,0,8.828,3.953,8.828,8.828l0,0C370.759,207.91,366.806,211.862,361.931,211.862z"/>
</g>
<path style="fill:#B4EB82;" d="M7.555,317.793C35.206,429.318,135.927,512,256,512s220.794-82.682,248.445-194.207H7.555z"/>
<path style="fill:#9BD26E;" d="M9.945,326.621h492.109c1.665-5.81,3.171-11.684,4.428-17.655H5.518
	C6.774,314.936,8.28,320.811,9.945,326.621z"/>
<path style="fill:#7DB45A;" d="M335.448,406.069H185.379c-4.875,0-8.828-3.953-8.828-8.828l0,0c0-4.875,3.953-8.828,8.828-8.828
	h150.069c4.875,0,8.828,3.953,8.828,8.828l0,0C344.276,402.116,340.323,406.069,335.448,406.069z"/>
<g>
	<path style="fill:#D7F082;" d="M158.897,370.759h-17.655c-4.875,0-8.828-3.953-8.828-8.828l0,0c0-4.875,3.953-8.828,8.828-8.828
		h17.655c4.875,0,8.828,3.953,8.828,8.828l0,0C167.724,366.806,163.772,370.759,158.897,370.759z"/>
	<path style="fill:#D7F082;" d="M441.379,370.759h-8.828c-4.875,0-8.828-3.953-8.828-8.828l0,0c0-4.875,3.953-8.828,8.828-8.828
		h8.828c4.875,0,8.828,3.953,8.828,8.828l0,0C450.207,366.806,446.254,370.759,441.379,370.759z"/>
	<path style="fill:#D7F082;" d="M397.241,370.759h-26.483c-4.875,0-8.828-3.953-8.828-8.828l0,0c0-4.875,3.953-8.828,8.828-8.828
		h26.483c4.875,0,8.828,3.953,8.828,8.828l0,0C406.069,366.806,402.116,370.759,397.241,370.759z"/>
	<path style="fill:#D7F082;" d="M308.966,441.379h-61.793c-4.875,0-8.828-3.953-8.828-8.828l0,0c0-4.875,3.953-8.828,8.828-8.828
		h61.793c4.875,0,8.828,3.953,8.828,8.828l0,0C317.793,437.427,313.841,441.379,308.966,441.379z"/>
	<path style="fill:#D7F082;" d="M211.862,441.379h-8.828c-4.875,0-8.828-3.953-8.828-8.828l0,0c0-4.875,3.953-8.828,8.828-8.828
		h8.828c4.875,0,8.828,3.953,8.828,8.828l0,0C220.69,437.427,216.737,441.379,211.862,441.379z"/>
	<path style="fill:#D7F082;" d="M105.931,370.759h-35.31c-4.875,0-8.828-3.953-8.828-8.828l0,0c0-4.875,3.953-8.828,8.828-8.828
		h35.31c4.875,0,8.828,3.953,8.828,8.828l0,0C114.759,366.806,110.806,370.759,105.931,370.759z"/>
</g>
<g>
	<path style="fill:#EBF9FF;" d="M273.655,61.793h-35.31c-4.875,0-8.828-3.953-8.828-8.828l0,0c0-4.875,3.953-8.828,8.828-8.828
		h35.31c4.875,0,8.828,3.953,8.828,8.828l0,0C282.483,57.841,278.53,61.793,273.655,61.793z"/>
	<path style="fill:#EBF9FF;" d="M203.034,61.793h-17.655c-4.875,0-8.828-3.953-8.828-8.828l0,0c0-4.875,3.953-8.828,8.828-8.828
		h17.655c4.875,0,8.828,3.953,8.828,8.828l0,0C211.862,57.841,207.91,61.793,203.034,61.793z"/>
	<path style="fill:#EBF9FF;" d="M317.793,79.448h-52.966c-4.875,0-8.828-3.953-8.828-8.828l0,0c0-4.875,3.953-8.828,8.828-8.828
		h52.966c4.875,0,8.828,3.953,8.828,8.828l0,0C326.621,75.496,322.668,79.448,317.793,79.448z"/>
	<path style="fill:#EBF9FF;" d="M414.897,158.897h-52.966c-4.875,0-8.828-3.953-8.828-8.828l0,0c0-4.875,3.953-8.828,8.828-8.828
		h52.966c4.875,0,8.828,3.953,8.828,8.828l0,0C423.724,154.944,419.772,158.897,414.897,158.897z"/>
	<path style="fill:#EBF9FF;" d="M432.552,141.241h-35.31c-4.875,0-8.828-3.953-8.828-8.828l0,0c0-4.875,3.953-8.828,8.828-8.828
		h35.31c4.875,0,8.828,3.953,8.828,8.828l0,0C441.379,137.289,437.427,141.241,432.552,141.241z"/>
</g>
<path style="fill:#643C46;" d="M203.034,105.931L203.034,105.931c-4.875,0-8.828,3.953-8.828,8.828v291.31h17.655v-291.31
	C211.862,109.884,207.91,105.931,203.034,105.931z"/>
<path style="fill:#FF5050;" d="M247.172,194.727l77.28-31.821c7.288-3.001,7.288-13.324,0-16.326l-77.28-31.821V194.727z"/>
<polygon style="fill:#C8373C;" points="247.172,114.759 264.828,145.396 247.172,150.069 "/>
<polygon style="fill:#FF5050;" points="264.828,145.396 211.862,123.586 211.862,247.172 264.828,225.363 "/>
<circle style="fill:#FFFFFF;" cx="295.724" cy="357.517" r="39.724"/>
<path style="fill:#FFEBDC;" d="M282.483,357.517c0-17.271,11.09-31.82,26.483-37.292c-4.161-1.479-8.574-2.432-13.241-2.432
	c-21.939,0-39.724,17.785-39.724,39.724s17.785,39.724,39.724,39.724c4.668,0,9.08-0.953,13.241-2.432
	C293.572,389.337,282.483,374.788,282.483,357.517z"/>
<g>
</g>
<g>
</g>
<g>
</g>
<g>
</g>
<g>
</g>
<g>
</g>
<g>
</g>
<g>
</g>
<g>
</g>
<g>
</g>
<g>
</g>
<g>
</g>
<g>
</g>
<g>
</g>
<g>
</g>
</svg>
